<?xml version="1.0" encoding="UTF-8"?><svg id="Layer_1" xmlns="http://www.w3.org/2000/svg" viewBox="0 0 505.42 162.57"><defs><style>.cls-1{fill:#001e5f;}</style></defs><path class="cls-1" d="M112.89,160.84c-.32-.16-.28-4.37,0-4.37h.2c2.08,2.52,4.77,4.49,7.94,4.53,3.89.04,6.65-1.32,6.65-5.57,0-3.73-3.45-5.37-7.01-7.17-3.73-2.08-7.57-4.21-7.57-9.02s3.73-7.77,9.06-7.77c3.29,0,5.05.4,6.85,1.16.36.16.28,4.09.08,4.09h-.2c-1.32-1.88-3.21-3.77-6.77-3.77-2.36,0-5.73.96-5.73,4.41s3.29,5.01,7.17,7.13c3.97,2.17,7.81,4.29,7.81,9.26,0,5.57-4.09,8.78-10.3,8.78-2.77,0-6.33-.68-8.18-1.68Z"/><path class="cls-1" d="M132.7,161.24c.84-.12,1.4-.2,2.04-.32.04-1.28.04-2.49.04-4.17v-8.86c0-1.72-.04-3.37-.08-5.13-.8-.28-1.32-.36-2.08-.56-.04,0-.08-.68.04-.68,2.6-.64,3.77-.96,5.81-1.52.04,0,.36.2.36.28-.04,1-.04,2.08-.08,3.29v17.39c.68.12,1.32.2,2.16.28.12,0,0,.8-.04.8h-8.26c-.08,0,0-.8.08-.8ZM134.38,134.63c0-1.28,1.04-2.32,2.32-2.32s2.36,1.04,2.36,2.32-1.04,2.32-2.36,2.32-2.32-1.04-2.32-2.32Z"/><path class="cls-1" d="M142.85,161.24c.84-.12,1.4-.2,2.04-.32.04-1.28.04-2.49.04-4.17v-8.86c0-1.72-.04-3.37-.08-5.13-.8-.28-1.32-.36-2.08-.56-.04,0-.08-.68.04-.68,2.72-.68,3.33-.88,5.69-1.52.04,0,.36.2.36.28l-.04,3.17h.12c2-1.96,5.09-3.29,7.9-3.29s4.45.92,5.13,3.29h.08c2-1.96,5.25-3.29,8.06-3.29,3.61,0,5.45,1.56,5.45,6.01v14.79c.68.12,1.24.2,2.08.28.08,0,0,.8-.08.8h-8.18c-.12,0-.04-.8.08-.8.84-.12,1.36-.2,2-.32.04-1.36.04-2.49.04-4.17v-9.54c0-3.17-.76-4.65-3.69-4.65-2.28,0-4.41.8-5.65,2.08.08.44.08.96.08,1.52v14.79c.68.12,1.24.2,2.08.28.08,0,0,.8-.08.8h-8.18c-.08,0,0-.8.08-.8.84-.12,1.4-.2,2-.32.08-1.36.08-2.49.08-4.17v-9.54c0-3.17-.76-4.65-3.73-4.65-2.24,0-4.25.8-5.53,2v16.39c.64.12,1.2.2,2.04.28.12,0,0,.8-.04.8h-8.21c-.08,0,0-.8.08-.8Z"/><path class="cls-1" d="M178.84,151.5c0-7.17,4.65-11.38,10.38-11.38s10.54,3.93,10.54,11.1-4.61,11.34-10.34,11.34-10.58-3.93-10.58-11.06ZM195.51,151.47c0-7.69-2.53-10.14-6.29-10.14-3.57,0-6.09,2.6-6.09,9.94,0,7.69,2.52,10.18,6.29,10.18,3.57,0,6.09-2.69,6.09-9.98Z"/><path class="cls-1" d="M201.12,161.24c.84-.12,1.4-.2,2.04-.32.04-1.28.08-2.49.08-4.17v-8.86c0-1.72-.08-3.37-.12-5.13-.76-.28-1.28-.36-2.08-.56-.04,0-.04-.68.04-.68,2.73-.68,3.33-.88,5.69-1.52.08,0,.36.2.36.28l-.04,3.17h.12c2-1.96,5.41-3.29,8.22-3.29,3.57,0,5.65,1.56,5.65,6.01v14.79c.68.12,1.28.2,2.08.28.12,0,0,.8-.08.8h-8.22c-.08,0,0-.8.08-.8.84-.12,1.4-.2,2.04-.32.04-1.36.04-2.49.04-4.17v-9.54c0-3.17-.88-4.69-3.89-4.69-2.24,0-4.57.84-5.89,2.04v16.39c.68.12,1.24.2,2.12.28.08,0,0,.8-.08.8h-8.26c-.08,0,0-.8.08-.8Z"/><path class="cls-1" d="M242.48,131.99c6.05,0,9.82,2.56,9.82,6.81,0,3.29-2.41,6.21-6.73,7.21v.24c4.29.52,8.9,2.44,8.9,7.45,0,3.01-1.6,5.49-4.61,6.97-1.68.84-3.93,1.36-6.45,1.36h-11.02c-.08,0,0-.92.08-.96.96-.12,1.8-.2,2.65-.32.08-1.56.12-4.65.12-6.37v-21.2c-1.04-.08-1.76-.16-2.73-.28-.08,0-.04-.92.04-.92h9.94ZM241.8,145.65c1.56,0,2.88-.4,3.93-1.12,1.6-1.12,2.48-2.81,2.48-5.05,0-4.77-2.81-6.33-7.21-6.33h-1.4v12.5h2.2ZM243.16,160.8c4.65,0,6.93-2.69,6.93-6.85,0-6.01-4.77-6.93-10.5-6.89v13.75h3.57Z"/><path class="cls-1" d="M275.48,160.24c1.36.24,1.44.28,2.69.48.08.04.08.76-.04.8-2.52.36-3.65.44-6.21.96-.08,0-.32-.2-.32-.28v-3.05h-.2c-1.44,2-4.65,3.41-6.85,3.41-3.89,0-6.57-2.16-6.57-6.33v-10.1c0-1.44-.04-3.01-.04-4.45-.64-.12-1.24-.16-2.08-.28-.12,0-.04-.8.08-.8h6.13v14.35c0,3.57,1.12,5.17,4.41,5.17,2.4,0,3.97-1.08,4.89-2.12v-11.62c0-1.52-.04-3.17-.04-4.69-.64-.08-1.28-.16-2.12-.28-.12,0-.04-.8.04-.8h6.21v14.63c0,1.76,0,3.37.04,5.01Z"/><path class="cls-1" d="M279.92,161.2c-.2-.12-.04-3.49.08-3.49h.24c1.76,2.04,3.41,3.53,6.25,3.53,2.64,0,4.25-.8,4.25-3.49,0-2.48-2.04-3.37-5.65-5.05-2.4-1.16-4.93-2.77-4.93-6.37,0-4.21,3.61-6.21,7.17-6.21,2.48,0,4.45.44,5.65,1.16.12.12.08,3.25,0,3.25h-.2c-1.24-1.96-2.97-3.05-5.53-3.05-2.2,0-3.89,1.16-3.89,3.25,0,2.53,1.52,3.13,4.37,4.53,3.17,1.56,6.45,3.13,6.45,6.65,0,4.77-3.93,6.65-7.69,6.65-2.81,0-4.97-.52-6.57-1.36Z"/><path class="cls-1" d="M295.56,161.24c.84-.12,1.4-.2,2.04-.32.04-1.28.04-2.49.04-4.17v-8.86c0-1.72-.04-3.37-.08-5.13-.8-.28-1.32-.36-2.08-.56-.04,0-.08-.68.04-.68,2.6-.64,3.77-.96,5.81-1.52.04,0,.36.2.36.28-.04,1-.04,2.08-.08,3.29v17.39c.68.12,1.32.2,2.16.28.12,0,0,.8-.04.8h-8.26c-.08,0,0-.8.08-.8ZM297.24,134.63c0-1.28,1.04-2.32,2.32-2.32s2.36,1.04,2.36,2.32-1.04,2.32-2.36,2.32-2.32-1.04-2.32-2.32Z"/><path class="cls-1" d="M305.67,161.24c.84-.12,1.4-.2,2.04-.32.04-1.28.08-2.49.08-4.17v-8.86c0-1.72-.08-3.37-.12-5.13-.76-.28-1.28-.36-2.08-.56-.04,0-.04-.68.04-.68,2.73-.68,3.33-.88,5.69-1.52.08,0,.36.2.36.28l-.04,3.17h.12c2-1.96,5.41-3.29,8.22-3.29,3.57,0,5.65,1.56,5.65,6.01v14.79c.68.12,1.28.2,2.08.28.12,0,0,.8-.08.8h-8.22c-.08,0,0-.8.08-.8.84-.12,1.4-.2,2.04-.32.04-1.36.04-2.49.04-4.17v-9.54c0-3.17-.88-4.69-3.89-4.69-2.24,0-4.57.84-5.89,2.04v16.39c.68.12,1.24.2,2.12.28.08,0,0,.8-.08.8h-8.26c-.08,0,0-.8.08-.8Z"/><path class="cls-1" d="M329.02,151.59c0-6.81,3.81-11.46,9.74-11.46,5.61,0,8.74,3.77,8.66,10.1h-14.35c.08,6.33,3.08,9.58,7.01,9.58,4.21,0,5.89-1.48,7.17-2.77.2-.16.24.48.12.76-.96,2-3.93,4.77-8.3,4.77-6.25,0-10.06-4.33-10.06-10.98ZM333.06,149.1l9.98-.4c0-4.97-1.48-7.45-4.41-7.45s-5.33,2.41-5.57,7.86Z"/><path class="cls-1" d="M349.38,161.2c-.2-.12-.04-3.49.08-3.49h.24c1.76,2.04,3.41,3.53,6.25,3.53,2.64,0,4.25-.8,4.25-3.49,0-2.48-2.04-3.37-5.65-5.05-2.4-1.16-4.93-2.77-4.93-6.37,0-4.21,3.61-6.21,7.17-6.21,2.48,0,4.45.44,5.65,1.16.12.12.08,3.25,0,3.25h-.2c-1.24-1.96-2.97-3.05-5.53-3.05-2.2,0-3.89,1.16-3.89,3.25,0,2.53,1.52,3.13,4.37,4.53,3.17,1.56,6.45,3.13,6.45,6.65,0,4.77-3.93,6.65-7.69,6.65-2.81,0-4.97-.52-6.57-1.36Z"/><path class="cls-1" d="M365.49,161.2c-.2-.12-.04-3.49.08-3.49h.24c1.76,2.04,3.41,3.53,6.25,3.53,2.64,0,4.25-.8,4.25-3.49,0-2.48-2.04-3.37-5.65-5.05-2.4-1.16-4.93-2.77-4.93-6.37,0-4.21,3.61-6.21,7.17-6.21,2.48,0,4.45.44,5.65,1.16.12.12.08,3.25,0,3.25h-.2c-1.24-1.96-2.97-3.05-5.53-3.05-2.2,0-3.89,1.16-3.89,3.25,0,2.53,1.52,3.13,4.37,4.53,3.17,1.56,6.45,3.13,6.45,6.65,0,4.77-3.93,6.65-7.69,6.65-2.81,0-4.97-.52-6.57-1.36Z"/><path class="cls-1" d="M389.45,160.84c-.32-.16-.28-4.37,0-4.37h.2c2.08,2.52,4.77,4.49,7.94,4.53,3.89.04,6.65-1.32,6.65-5.57,0-3.73-3.45-5.37-7.01-7.17-3.73-2.08-7.57-4.21-7.57-9.02s3.73-7.77,9.06-7.77c3.29,0,5.05.4,6.85,1.16.36.16.28,4.09.08,4.09h-.2c-1.32-1.88-3.21-3.77-6.77-3.77-2.36,0-5.73.96-5.73,4.41s3.29,5.01,7.17,7.13c3.97,2.17,7.81,4.29,7.81,9.26,0,5.57-4.09,8.78-10.3,8.78-2.77,0-6.33-.68-8.18-1.68Z"/><path class="cls-1" d="M427.67,157.28c.12-.08.28.48.16.72-.96,2.2-3.97,4.57-8.02,4.57-5.69,0-9.82-4.33-9.82-10.66,0-7.57,5.69-11.74,11.06-11.74,2.64,0,4.17.32,5.81.92.2.08.24,3.13,0,3.13h-.2c-1.84-1.44-3.29-2.69-5.65-2.69-3.93,0-7.09,3.08-7.09,8.98s2.96,9.42,7.21,9.42c2.89.04,5.13-1.28,6.53-2.65Z"/><path class="cls-1" d="M428.71,161.24c.84-.12,1.4-.2,2.04-.32.04-1.28.04-2.49.04-4.17v-17.99c0-1.72-.04-3.41-.08-5.17-.8-.24-1.28-.36-2.08-.56-.04,0-.08-.64.04-.64,2.72-.68,3.41-.92,5.73-1.52.08,0,.36.2.36.28v12.3h.12c2-1.96,5.33-3.29,8.09-3.29,3.61,0,5.69,1.64,5.69,6.01v14.79c.64.12,1.24.2,2.08.28.08,0,0,.8-.08.8h-8.21c-.12,0-.04-.8.08-.8.84-.12,1.36-.2,2.04-.32.04-1.36.04-2.49.04-4.17v-9.54c0-3.17-.88-4.69-3.89-4.69-2.28,0-4.61.84-5.89,2.04v16.39c.68.12,1.24.2,2.08.28.12,0,0,.8-.04.8h-8.26c-.08,0,0-.8.08-.8Z"/><path class="cls-1" d="M451.92,151.5c0-7.17,4.65-11.38,10.38-11.38s10.54,3.93,10.54,11.1-4.61,11.34-10.34,11.34-10.58-3.93-10.58-11.06ZM468.59,151.47c0-7.69-2.53-10.14-6.29-10.14-3.57,0-6.09,2.6-6.09,9.94,0,7.69,2.52,10.18,6.29,10.18,3.57,0,6.09-2.69,6.09-9.98Z"/><path class="cls-1" d="M474.81,151.5c0-7.17,4.65-11.38,10.38-11.38s10.54,3.93,10.54,11.1-4.61,11.34-10.34,11.34-10.58-3.93-10.58-11.06ZM491.48,151.47c0-7.69-2.53-10.14-6.29-10.14-3.57,0-6.09,2.6-6.09,9.94,0,7.69,2.52,10.18,6.29,10.18,3.57,0,6.09-2.69,6.09-9.98Z"/><path class="cls-1" d="M497.13,161.24c.84-.12,1.4-.2,2.04-.32.04-1.28.04-2.49.04-4.17v-17.83c0-1.72-.04-3.37-.08-5.13-.8-.28-1.32-.4-2.08-.56-.04,0-.08-.68.04-.72,2.6-.64,3.81-.92,5.85-1.48.04-.04.36.16.36.28,0,.96-.12,2.41-.12,3.81v25.85c.68.12,1.36.2,2.2.28.08,0,0,.8-.08.8h-8.26c-.08,0,0-.8.08-.8Z"/><path class="cls-1" d="M225.11,93.91c0-11.91,7.72-18.89,17.23-18.89s17.5,6.52,17.5,18.43-7.65,18.83-17.16,18.83-17.56-6.52-17.56-18.36ZM252.79,93.84c0-12.77-4.19-16.83-10.44-16.83-5.92,0-10.11,4.32-10.11,16.5,0,12.77,4.19,16.9,10.44,16.9,5.92,0,10.11-4.46,10.11-16.56Z"/><path class="cls-1" d="M112.66,93.91c0-11.91,7.72-18.89,17.23-18.89s17.5,6.52,17.5,18.43-7.65,18.83-17.16,18.83-17.56-6.52-17.56-18.36ZM140.33,93.84c0-12.77-4.19-16.83-10.44-16.83-5.92,0-10.11,4.32-10.11,16.5,0,12.77,4.19,16.9,10.44,16.9,5.92,0,10.11-4.46,10.11-16.56Z"/><path class="cls-1" d="M293.36,103.48c.2-.13.47.8.27,1.2-1.6,3.66-6.59,7.58-13.3,7.58-9.45,0-16.3-7.18-16.3-17.7,0-12.57,9.45-19.49,18.36-19.49,4.39,0,6.92.53,9.65,1.53.33.13.4,5.19,0,5.19h-.33c-3.06-2.4-5.46-4.46-9.38-4.46-6.52,0-11.77,5.12-11.77,14.9s4.92,15.63,11.97,15.63c4.79.07,8.52-2.13,10.84-4.39Z"/><path class="cls-1" d="M333.86,94.04c0-11.31,6.32-19.03,16.17-19.03,9.31,0,14.5,6.25,14.37,16.76h-23.82c.13,10.51,5.12,15.9,11.64,15.9,6.99,0,9.78-2.46,11.91-4.59.33-.27.4.8.2,1.26-1.6,3.33-6.52,7.92-13.77,7.92-10.38,0-16.7-7.18-16.7-18.23ZM340.58,89.91l16.56-.67c0-8.25-2.46-12.37-7.32-12.37s-8.85,3.99-9.25,13.04Z"/><path class="cls-1" d="M369.24,110c-.33-.2-.07-5.79.13-5.79h.4c2.93,3.39,5.65,5.85,10.38,5.85,4.39,0,7.05-1.33,7.05-5.79,0-4.12-3.39-5.59-9.38-8.38-3.99-1.93-8.18-4.59-8.18-10.58,0-6.99,5.99-10.31,11.91-10.31,4.12,0,7.38.73,9.38,1.93.2.2.13,5.39,0,5.39h-.33c-2.06-3.26-4.92-5.06-9.18-5.06-3.66,0-6.45,1.93-6.45,5.39,0,4.19,2.53,5.19,7.25,7.52,5.26,2.59,10.71,5.19,10.71,11.04,0,7.92-6.52,11.04-12.77,11.04-4.66,0-8.25-.86-10.91-2.26Z"/><path class="cls-1" d="M400.7,103.15v-24.41h-5.39v-1.06l11.04-9.11c.2-.27,1,0,1,.27-.13,2.13.07,4.79,0,6.98h10.64c.33,0-.4,2.93-.4,2.93h-10.24v24.02c0,3.53,1.2,5.85,5.06,5.85,2.53,0,4.72-1.2,5.92-1.86.13-.07.33,1.06.2,1.33-1.33,2.2-4.72,4.19-9.11,4.19-6.59,0-8.71-3.53-8.71-9.11Z"/><path class="cls-1" d="M420.41,94.04c0-11.31,6.32-19.03,16.17-19.03,9.31,0,14.5,6.25,14.37,16.76h-23.82c.13,10.51,5.12,15.9,11.64,15.9,6.99,0,9.78-2.46,11.91-4.59.33-.27.4.8.2,1.26-1.6,3.33-6.52,7.92-13.77,7.92-10.38,0-16.7-7.18-16.7-18.23ZM427.13,89.91l16.56-.67c0-8.25-2.46-12.37-7.32-12.37s-8.85,3.99-9.25,13.04Z"/><path class="cls-1" d="M328.38,109.74v-24.68c0-7.25-3.46-9.98-9.45-9.98-4.59,0-10.11,2.2-13.44,5.45h-.2v-20.42c0-.13-.48-.47-.61-.47l-9.54,7.89-.03,1.09c1.33.33,2.13.53,3.46.93.07,2.93,0,5.72,0,8.58v24.48c0,2.79.07,4.99,0,7.12h-3.53v1.66h13.96v-1.66h-3.58v-27.35c2.13-2,5.99-3.39,9.78-3.39,4.99,0,6.45,2.53,6.45,7.78v15.83c0,2.76,0,4.89-.06,7.12h-3.64v1.66h13.96v-1.66h-3.54Z"/><path class="cls-1" d="M225.58,109.74h-2.75s-.91-1.15-1.44-1.87c-5.06-7.45-8.78-13.5-12.37-20.56v-.2c6.65-2.66,9.58-7.25,9.58-12.91,0-7.65-5.59-12.71-20.95-12.75h-13.83v1.66h3.59v35.57c0,2.78.15,8.36.03,11.05h-3.97v1.66h15.91v-1.66h-4.71v-21.16c1.8.27,4.72.33,7.18.4,3.27,6.05,7.56,13.64,11.93,20.76h-2.79v1.66h15.02v-1.66h-.41ZM194.64,86.99v-12.77c0-2.86-.2-8.49,0-11.09,12.51,0,16.5,3.1,16.56,12.68,0,9.65-8.85,11.84-16.56,11.18Z"/><path class="cls-1" d="M473.94,75.12c-3.98,0-7.56,3.58-9.29,6.9h-.33l.07-6.63c-.01-.47-.98-.36-1.05-.36l-9.06,7.59c-.31.24-.04,1.18.03,1.18,1.26.27,2.2.46,3.52.93v17.91c0,2.67.06,5.04,0,7.1h-3.59v1.66h14.56v-1.66h-4.21v-25.6c1.99-2.79,5.04-3.65,7.96-3.65,1.92,0,3.32.53,4.38.93h.2c.07,0,.27-5.31.07-5.51-.73-.6-1.66-.8-3.25-.8Z"/><path class="cls-1" d="M281.15,41.45c-2.12,2.12-4.91,4.58-11.87,4.58-6.5,0-11.47-5.37-11.61-15.85h23.74c.13-10.48-5.04-16.71-14.33-16.71-9.82,0-16.12,7.69-16.12,18.97s6.3,18.17,16.65,18.17c7.23,0,12.14-4.58,13.73-7.89.2-.46.13-1.53-.2-1.26ZM266.89,15.32c4.84,0,7.3,4.11,7.3,12.34l-16.51.66c.4-9.02,4.44-13,9.22-13Z"/><path class="cls-1" d="M305.55,13.47c-3.98,0-7.56,3.58-9.29,6.9h-.33l.07-6.63c-.01-.47-.98-.36-1.05-.36l-9.06,7.59c-.31.24-.04,1.18.03,1.18,1.26.27,2.2.46,3.52.93v17.91c0,2.67.06,5.04,0,7.1h-3.59v1.66h14.56v-.91c.03-.14.03-.27,0-.32v-.43h-4.21v-25.6c1.99-2.79,5.04-3.65,7.96-3.65,1.92,0,3.32.53,4.38.93h.2c.07,0,.27-5.31.07-5.51-.73-.6-1.66-.8-3.25-.8Z"/><path class="cls-1" d="M325.19,28.59c-4.71-2.32-7.23-3.32-7.23-7.49,0-3.45,2.79-5.37,6.43-5.37,4.24,0,7.1,1.79,9.15,5.04h.33c.13,0,.2-5.17,0-5.37-1.99-1.19-5.24-1.92-9.35-1.92-5.9,0-11.87,3.32-11.87,10.28,0,5.97,4.18,8.62,8.16,10.55,5.97,2.79,9.35,4.24,9.35,8.36,0,4.44-2.65,5.77-7.03,5.77-4.71,0-7.43-2.45-10.35-5.84h-.4c-.2,0-.46,5.57-.13,5.77,2.65,1.39,6.23,2.25,10.88,2.25,6.23,0,12.73-3.12,12.73-11.01,0-5.84-5.44-8.42-10.68-11.01Z"/><path class="cls-1" d="M194.12,23.48c0-7.36-3.45-9.95-9.35-9.95-4.64,0-10.28,2.19-13.6,5.44h-.2v-5.24c0-.13-.4-.46-.53-.46-3.91,1.06-4.91,1.39-9.42,2.52-.13,0-.13,1.13-.07,1.13,1.33.33,2.27.46,3.53.93.07,2.92,0,5.64,0,8.49v14.66c0,2.64.06,5.04,0,7.1h-3.58v1.66h13.9v-.83c0-.15,0-.28,0-.37v-.46h-3.56v-27.26c2.19-1.99,6.04-3.38,9.75-3.38,4.97,0,6.43,2.52,6.43,7.76v15.79c0,2.66,0,4.93-.06,7.1h-3.54v1.66h13.83v-1.66h-3.53v-24.61Z"/><path class="cls-1" d="M211.78,19.17c.07-1.99-.07-3.78,0-5.44,0-.13-.4-.46-.46-.46-3.38.93-5.31,1.46-9.62,2.52-.2,0-.13,1.13-.07,1.13,1.26.33,2.25.46,3.58.93.07,2.92,0,5.64,0,8.49v14.66c0,2.6,0,5.05-.05,7.1h-3.58v1.35s0,.08,0,.11v.2h13.88v-1.66h-3.68v-28.92Z"/><path class="cls-1" d="M208.4,8.23c2.19,0,3.91-1.72,3.91-3.85s-1.72-3.85-3.91-3.85-3.85,1.72-3.85,3.85,1.72,3.85,3.85,3.85Z"/><path class="cls-1" d="M346.26,8.23c2.19,0,3.91-1.72,3.91-3.85s-1.72-3.85-3.91-3.85-3.85,1.72-3.85,3.85,1.72,3.85,3.85,3.85Z"/><path class="cls-1" d="M349.65,19.17c.07-1.99-.07-3.78,0-5.44,0-.13-.4-.46-.46-.46-3.38.93-5.31,1.46-9.62,2.52-.2,0-.13,1.13-.07,1.13,1.26.33,2.2.46,3.53.93.07,2.92,0,5.64,0,8.49v14.66c0,2.56.05,5.06,0,7.1h-3.6v1.66h13.88v-1.66h-3.67v-28.92Z"/><path class="cls-1" d="M377.58,44.66c-1.19.66-3.38,1.86-5.9,1.86-3.85,0-5.04-2.32-5.04-5.84v-23.94h10.21c.33,0,.73-2.92.4-2.92h-10.61c.07-2.19-.13-4.84,0-6.96,0-.27-.8-.53-1-.27-1.53,1.46-7.36,6.37-11.01,9.09-.2.2-.13,1.06,0,1.06h5.37v24.34c0,5.57,2.12,9.09,8.69,9.09,4.38,0,7.76-1.99,9.09-4.18.13-.27-.07-1.39-.2-1.33Z"/><path class="cls-1" d="M146.65,0h-.2v.72c-.01.18-.02.37,0,.52v.42h.83c.06,0,.12,0,.18,0h3.97v29.51c0,12.93-7.1,16.52-14.19,16.52-8.42,0-15.2-3.91-15.2-15.12V12.54c0-2.85-.13-8.29,0-10.88h4.84V0h-16.89v1.66h4.76v30.51c0,13.2,9.5,18.24,20.64,18.24,10.55,0,18.64-4.58,18.64-19.37V13.2c.06-3.99-.13-8.26,0-11.54h5.18V0h-12.54Z"/><path class="cls-1" d="M250.97,15.85v-1.66h-9.5v1.66h4.01c-1.02,3.34-2.91,8.67-4.91,14.53l-3.85,10.94h-.13l-5.9-15.85c-1.1-3.03-2.38-6.91-3.18-9.62h4.23v-1.66h-14.34v1.66h2.44l13.37,34.3h2.12l8.36-22.68c1.54-4.04,3.34-9.01,4.29-11.61h2.99Z"/><path class="cls-1" d="M412.62,14.19h-9.07v1.66h3.71c-.77,2.81-1.62,5.6-3.47,11.48-1.72,5.04-3.25,9.68-4.97,14.79h-.13c-2.06-6.1-3.98-12.07-5.97-17.97-1.02-2.88-1.94-5.72-2.78-8.3h4.11v-1.66h-14.22v1.66h2.6l12.61,35.03c-.66,1.92-1.39,3.71-2.72,5.37-1.19,1.46-2.32,2.65-5.24,2.65-1.86,0-3.25-.86-4.58-1.86h-.2c-.33,0-.46,3.65,0,3.85.66.33,2.19.66,3.91.66,3.25,0,5.84-1.46,7.89-4.05,1.53-1.99,3.05-4.97,4.78-10.08l7.43-21.03c1.64-4.54,2.76-8,3.72-10.55h2.59v-1.66Z"/><path class="cls-1" d="M154.15,78.84h-4.71c-.07,0-.07-1.59,0-1.59l4.71-1.46v-1.79c0-9.55,7.23-14.06,13.66-14.06,3.25,0,4.13.27,5.32.73.33.07.27,4.64,0,4.64h-.27c-1.66-1.66-2.87-3.05-5.52-3.05-4.38,0-6.43,2.72-6.43,7.56v6.1h8.95c.27,0-.27,2.92-.46,2.92h-8.49v30.78h4.18v1.79h-14.53v-1.75c-.09,0,3.58,0,3.58,0v-30.81Z"/><path class="cls-1" d="M45.28,76.68c.54.54,1.66.95,3,1.04,1.9.13,3.48-.46,3.54-1.31.06-.82-1.33-1.59-3.14-1.76-.09-.02-.19-.04-.3-.03-.04,0-.09,0-.14,0-.4-.01-.79,0-1.14.05-.16,0-.33.01-.5.02-1.01.04-2.06.08-3.1.14v-2.41l.71-1.66s-.82-1.16-1.62-1.16-1.74,1.16-1.74,1.16l.71,1.66v2.56c-3.92.4-7.32,1.38-7.33,4.27-.02,2.64,3.26,3.28,7.33,3.36v2.48c-3.2.19-5.02,1.41-5.07,3.44-.05,2.04,2.59,2.67,5.07,2.83v3.29c-1.18.23-2.05.32-2.07.33-.53.05-.92.52-.87,1.05.05.5.66.64,1.15.64.2,0,.86-.06,1.79-.23v3.42l1.03.87.91-.87v-3.87c.45-.12.93-.27,1.41-.44,1.56-.55,2.58-1.86,2.45-3.23-.12-1.25-1.52-2.38-3.86-2.74v-2.67c3.79-.25,6.05-1.48,6.05-3.6s-3.81-2.56-6.05-2.62v-3.94c.61-.05,1.21-.08,1.78-.11ZM38.49,88.26c.02-.81,1.75-1.13,3.07-1.23v2.41c-2.63-.22-3.08-.64-3.07-1.18ZM45.51,92.61c.1.54-.6,1.16-1.29,1.38-.24.08-.48.15-.72.22v-2.71c1.26.19,1.93.67,2.01,1.11ZM47.11,83.07c.33.28.59.8-.19,1.24-.78.44-2.07.69-3.42.75v-2.43c1.33-.01,3.09,0,3.61.44ZM41.56,80.71c-4.57-.09-5.47-1.09-5.45-1.72.04-1.09,2.59-1.69,5.45-2.01v3.74Z"/><polygon class="cls-1" points="10.73 13.2 10.78 13.2 13.41 19.2 14.72 19.2 17.35 13.2 17.4 13.2 17.4 19.2 19.22 19.2 19.22 9.88 16.99 9.88 14.08 16.43 14.05 16.43 11.14 9.88 8.91 9.88 8.91 19.2 10.73 19.2 10.73 13.2"/><polygon class="cls-1" points="29.33 17.55 24.85 17.55 24.85 15.33 28.97 15.33 28.97 13.61 24.85 13.61 24.85 11.52 29.21 11.52 29.21 9.88 23.05 9.88 23.05 19.2 29.33 19.2 29.33 17.55"/><polygon class="cls-1" points="38.69 17.55 34.55 17.55 34.55 9.88 32.75 9.88 32.75 19.2 38.69 19.2 38.69 17.55"/><rect class="cls-1" x="41.66" y="9.88" width="1.8" height="9.31"/><path class="cls-1" d="M49.18,18.78c.72.41,1.53.62,2.4.62s1.68-.21,2.4-.63c.72-.42,1.3-.99,1.72-1.73.42-.74.63-1.57.63-2.49s-.21-1.75-.63-2.5c-.42-.74-1-1.32-1.72-1.74-.72-.42-1.53-.63-2.4-.63s-1.68.21-2.4.62c-.73.41-1.3.99-1.73,1.73-.43.74-.64,1.58-.64,2.51s.21,1.77.64,2.5c.43.74,1,1.31,1.73,1.73ZM49.09,12.92c.26-.49.61-.87,1.04-1.14.44-.27.93-.41,1.47-.41s1.03.14,1.46.42c.43.28.78.67,1.03,1.15.25.49.37,1.02.37,1.61s-.13,1.15-.38,1.63c-.25.48-.6.86-1.03,1.13-.43.27-.92.41-1.45.41s-1.02-.13-1.46-.41c-.44-.27-.79-.65-1.05-1.13-.26-.48-.39-1.03-.39-1.64s.13-1.15.39-1.64Z"/><path class="cls-1" d="M60.96,15.87h1.09l2.22,3.33h2.03s-1.95-2.87-2.36-3.46h0c.39-.12.75-.28,1.06-.51.31-.23.57-.54.77-.92.2-.39.3-.86.3-1.42,0-.83-.21-1.46-.62-1.91-.41-.45-.86-.74-1.34-.88-.48-.14-.92-.21-1.31-.21h-3.64v9.31h1.8v-3.33ZM60.96,11.5h1.53c.43,0,.82.11,1.17.33.35.22.53.58.53,1.09,0,.35-.09.63-.27.83-.18.2-.4.34-.65.42s-.52.12-.8.12h-1.51v-2.79Z"/><path class="cls-1" d="M71.26,16.74h3.55l.93,2.4h1.89l-3.52-9.18h-2.07l-3.52,9.18h1.83l.92-2.4ZM73.03,12.06h.02l1.12,2.98h-2.29l1.14-2.98Z"/><path class="cls-1" d="M85.15,65.04V0H0v65.04c.01.85-.43,8.81,6.21,16.67,4.79,5.67,34.52,28.16,35.77,29.12l.59.45.59-.45c1.26-.96,30.92-23.5,35.77-29.12,6.56-7.59,6.22-15.85,6.21-16.67ZM83.22,1.91v24.85H1.94V1.91h81.28ZM7.68,80.46c-6.2-7.42-5.65-14.75-5.74-15.26V28.68h39.68v29.91l-31.09,24.62c-1.27-1.14-2.27-2.07-2.84-2.75ZM42.58,108.87c-3.51-2.68-21.68-16.63-30.59-24.36l30.59-24.22,30.59,24.22c-8.91,7.73-27.08,21.68-30.59,24.36ZM77.48,80.46c-.61.66-1.57,1.62-2.84,2.75l-31.09-24.62v-29.91h39.67v36.41s.25,8.87-5.74,15.37Z"/><path class="cls-1" d="M20.68,57.51v.19h2.13v-.19c.15-.36.7-1.46,2-1.46h8.56v-17.74h-8.73c-.93,0-2.07.37-2.89,1.04-.82-.67-1.96-1.04-2.89-1.04h-8.73v17.74h8.56c1.3,0,1.86,1.11,2,1.46ZM24.63,40.23h6.61v13.9h-6.43c-.79,0-1.45.19-2,.48v-13.23c0-.67,1.2-1.16,1.82-1.16ZM12.25,40.23h6.61c.62,0,1.82.49,1.82,1.16v13.23c-.55-.29-1.21-.48-2-.48h-6.43v-13.9Z"/><path class="cls-1" d="M70.54,37.56c-1.34,0-2.27.95-2.27,2.3,0,.36,0,.9.03,1.26h-.56v-1.3h-1.64v1.3h-1.07v-1.3h-1.64v1.3h-1.07v-1.3h-1.64v1.3h-.6c.02-.37.03-.9.03-1.26,0-1.35-.93-2.3-2.27-2.3s-2.27.95-2.27,2.3h1.64c0-.4.28-.73.63-.73s.63.33.63.73c0,2.65-.67,4.43-1.32,6.15-.59,1.57-1.15,3.04-1.15,4.96,0,1.05.24,2.08.71,3.05.44.9,1.06,1.71,1.84,2.41.12.11.25.22.39.32h-1.71l.02,1.71h13.89l-.02-1.71h-1.67c.13-.11.26-.21.39-.32.78-.7,1.4-1.51,1.84-2.41.47-.97.71-2,.71-3.05,0-1.9-.55-3.33-1.13-4.85-.66-1.71-1.33-3.48-1.33-6.26,0-.4.28-.73.63-.73s.63.33.63.73h1.64c0-1.35-.93-2.3-2.27-2.3ZM60.66,55.78c-1.87-1.1-3.03-2.93-3.03-4.81,0-1.55.47-2.8,1.02-4.25.43-1.14.92-2.43,1.2-4h.82v13.07ZM62.31,56.49v-13.77h1.07v13.99c-.36-.04-.72-.12-1.07-.22ZM65.02,56.7v-13.98h1.07v13.76c-.35.1-.71.18-1.07.22ZM68.51,42.72c.28,1.65.79,2.97,1.23,4.13.53,1.4,1,2.6,1,4.13,0,1.87-1.14,3.69-3,4.79v-13.05h.77Z"/></svg>